<?xml version="1.0" encoding="UTF-8"?>
<svg id="Layer_2" data-name="Layer 2" xmlns="http://www.w3.org/2000/svg" viewBox="0 0 120 120">
  <defs>
    <style>
      .cls-1 {
        fill: #1a1a1a;
      }

      .cls-1, .cls-2 {
        stroke-width: 0px;
      }

      .cls-2 {
        fill: none;
      }
    </style>
  </defs>
  <g id="MSCOM_Icons" data-name="MSCOM Icons">
    <g id="Link-List-Icons-Business">
      <g id="Bounding_Box" data-name="Bounding Box">
        <rect class="cls-2" width="120" height="120"/>
      </g>
      <g>
        <path class="cls-1" d="m94.31,102.24H25.7c-8.66,0-15.7-7.04-15.7-15.7v-35.38c0-8.66,7.04-15.7,15.7-15.7h25.04c1.1,0,2,.9,2,2s-.9,2-2,2h-25.04c-6.45,0-11.7,5.25-11.7,11.7v35.38c0,6.45,5.25,11.7,11.7,11.7h68.61c6.45,0,11.7-5.25,11.7-11.7v-35.38c0-6.45-5.25-11.7-11.7-11.7h-25.04c-1.1,0-2-.9-2-2s.9-2,2-2h25.04c8.66,0,15.7,7.04,15.7,15.7v35.38c0,8.66-7.04,15.7-15.7,15.7Z"/>
        <path class="cls-1" d="m78.83,39.47c-1.1,0-2-.9-2-2v-14.2c0-.83-.68-1.51-1.51-1.51h-30.64c-.83,0-1.51.68-1.51,1.51v14.19c0,1.1-.9,2-2,2s-2-.9-2-2v-14.19c0-3.04,2.47-5.51,5.51-5.51h30.64c3.04,0,5.51,2.47,5.51,5.51v14.2c0,1.1-.9,2-2,2Z"/>
        <path class="cls-1" d="m65.26,46.8h-10.53c-3.31,0-6-2.69-6-6v-5.37c0-1.1.9-2,2-2h18.53c1.1,0,2,.9,2,2v5.37c0,3.31-2.69,6-6,6Zm-12.53-9.37v3.37c0,1.1.9,2,2,2h10.53c1.1,0,2-.9,2-2v-3.37h-14.53Z"/>
      </g>
    </g>
  </g>
</svg>